<?xml version="1.0" encoding="utf-8" ?>
<svg xmlns="http://www.w3.org/2000/svg" xmlns:xlink="http://www.w3.org/1999/xlink" width="32" height="32">
	<path fill="#020204" transform="scale(0.0625 0.0625)" d="M136.403 64.3482C147.84 64.4134 163.513 76.177 170.41 84.692C186.609 104.691 173.459 138.269 147.444 135.264C146.14 139.968 144.801 144.665 143.641 149.407C180.519 138.487 217.262 135.533 253.357 149.407C250.709 104.736 303.885 80.6804 333.406 112.692C359.569 141.062 340.583 192.433 298.86 190.05C316.272 207.45 337.599 224.728 362.558 228.71C364.727 227.287 366.699 225.541 368.839 224.063C381.862 215.07 407.867 210.062 409.605 231.817C441.329 244.97 420.471 303.593 392.755 304.272C380.137 304.581 364.339 295.388 356.332 286.015C348.794 277.191 353.812 278.978 342.627 274.219C323.581 266.116 293.692 248.526 278.059 233.777C270.873 248.417 264.523 263.698 258.093 278.678C263.066 282.486 267.852 286.51 272.779 290.372L313.365 321.951C319.602 326.756 324.284 330.673 327.392 338.192C332.26 347.928 328.897 358.175 326.175 367.881L312.747 414.435C311.602 418.368 310.558 422.408 309.152 426.253C297.534 458.005 250.474 446.109 254.367 412.79C255.216 405.522 259.977 395.615 262.742 388.481L270.724 367.457C250.234 360.048 230.219 351.213 209.844 343.468C206.992 354.459 200.854 372.999 196.538 383.498C192.37 393.638 181.646 399.134 173.33 405.505C159.491 416.106 139.004 434.093 124.691 442.708C101.826 456.47 75.6054 427.555 89.0024 405.94C91.0067 402.706 102.098 393.163 105.698 389.817L131.744 365.368C140.944 356.791 141.842 360.352 141.154 348.788C137.903 294.119 159.54 233.995 193.398 191.924C174.569 193.601 155.793 196.049 136.99 197.999C129.896 198.735 119.425 200.485 112.511 199.811C80.0151 196.645 90.2529 154.599 98.1381 134.869C103.904 120.442 102.676 127.262 103.425 111.87C104.296 93.9873 115.858 66.5131 136.403 64.3482ZM149.564 359.232C146.076 362.883 142.048 366.073 138.375 369.544L107.517 398.484C99.6238 405.93 93.3242 408.465 93.5333 420.201C93.6324 425.769 96.4875 431.36 101.025 434.632C99.3187 427.045 95.5541 428.2 97.6806 415.133C98.4376 410.481 104.23 406.605 107.469 403.629L142.182 371.235C145.883 367.803 149.656 363.915 153.758 360.994C151.748 349.555 152.35 337.416 153.154 325.907C156.232 281.873 176.313 226.843 206.527 193.247C205.28 192.733 204.069 192.285 202.766 191.924C164.752 236.523 144.851 299.313 149.444 357.818L149.564 359.232ZM279.709 362.692C281.075 365.39 276.517 373.981 275.462 376.752L267.322 398.337C262.542 410.793 257.044 425.454 272.419 434.632C272.183 433.641 268.265 429.366 267.29 427.294C262.292 416.678 268.56 405.871 272.382 396.062C276.392 385.771 280.462 375.444 284.211 365.059C283.253 364.075 281.702 361.23 280.109 361.81L279.709 362.692ZM106.186 190.05C92.0401 169.683 108.009 144.019 115.195 124.49L115.321 124.141C111.98 108.476 122.364 72.5709 138.888 75.8059C146.886 77.3716 160.167 86.7703 165.315 93.0019C167.171 95.249 168.013 98.1248 169.805 100.394C168.196 91.0885 159.076 83.8685 151.829 78.7461C137.815 68.8417 130.06 69.4261 120.22 84.2642C114.355 93.1068 110.697 104.287 110.858 114.935C111.065 128.529 110.868 123.954 105.665 136.529C100.279 149.547 89.1231 180.732 106.186 190.05ZM260.998 153.54C262.422 154.296 263.81 155.063 265.166 155.936C257.505 127.479 286.953 99.5303 316.608 111.108C319.07 112.07 321.84 114.644 324.413 114.911C308.018 101.113 283.156 103.977 269.628 120.362C260.586 131.314 261.182 140.779 260.998 153.54ZM153.758 155.936C163.29 155 172.732 153.287 182.25 152.201C227.385 147.052 256.622 154.322 287.002 188.017C289.353 190.625 293.169 195.86 295.954 197.447C291.136 190.573 280.58 178.037 274.913 172.659C243.455 142.806 199.106 145.308 159.831 153.408C158.39 153.705 154.56 154.094 153.681 155.02L153.758 155.936Z"/>
	<path fill="#3D405B" transform="scale(0.0625 0.0625)" d="M153.758 155.936C163.29 155 172.732 153.287 182.25 152.201C227.385 147.052 256.622 154.322 287.002 188.017C289.353 190.625 293.169 195.86 295.954 197.447C297.37 198.553 298.396 199.99 299.639 201.266C311.748 213.705 326.472 222.705 341.969 230.352C342.326 243.718 338.404 249.743 329.746 259.386C313.268 250.794 297.972 239.997 283.421 228.485C272.556 219.889 273.82 223.816 268.631 235.473L260.325 254.418C258.965 257.593 248.866 279.344 249.45 280.68C250.465 283.004 264.435 293.327 267.049 295.343L300.859 321.89C325.772 341.251 325.877 341.977 316.084 375.498L305.613 411.552C304.505 415.276 303.631 419.122 302.406 422.8C298.443 434.701 282.785 441.72 272.419 434.632C272.183 433.641 268.265 429.366 267.29 427.294C262.292 416.678 268.56 405.871 272.382 396.062C276.392 385.771 280.462 375.444 284.211 365.059C283.253 364.075 281.702 361.23 280.109 361.81L279.709 362.692L279.253 362.554C270.596 359.883 262.012 355.965 253.626 352.559L217.875 338.24C202.123 331.872 183.757 327.954 175.281 311.608C174.016 309.168 172.618 303.579 169.778 302.726C158.934 299.472 169.902 317.9 171.511 320.24C179.992 332.578 190.197 335.375 202.766 340.425C199.713 349.979 192.792 375.372 187.958 383.304C184.605 388.806 175.227 394.415 170.134 398.31L131.76 427.845C122.12 435.466 113.5 443.586 101.025 434.632C99.3187 427.045 95.5541 428.2 97.6806 415.133C98.4376 410.481 104.23 406.605 107.469 403.629L142.182 371.235C145.883 367.803 149.656 363.915 153.758 360.994C151.748 349.555 152.35 337.416 153.154 325.907C156.232 281.873 176.313 226.843 206.527 193.247C210.228 194.262 214.297 198.891 218.013 198.738C228.334 198.315 212.868 185.435 204.141 183.92C198.635 182.965 187.451 184.916 181.665 185.561L153.758 188.576C156.68 178.032 157.504 166.407 153.758 155.936Z"/>
	<path fill="#E07A5F" transform="scale(0.0625 0.0625)" d="M115.321 124.141C111.98 108.476 122.364 72.5709 138.888 75.8059C146.886 77.3716 160.167 86.7703 165.315 93.0019C167.171 95.249 168.013 98.1248 169.805 100.394C173.864 111.917 159.614 133.674 146.791 126.98L146.964 126.659C149.807 121.485 161.095 112.277 159.406 106.179C158.909 104.388 156.41 103.636 154.809 104.252C154.249 104.468 142.754 120.092 139.359 123.101C138.121 124.198 125.702 132.741 133.511 134.989C135.957 135.693 139.069 133.085 141.001 131.778C139.566 137.371 136.058 146.914 135.555 152.1C134.768 160.233 142.191 156.574 146.791 155.936C150.044 169.504 149.468 176.812 145.531 190.05C135.632 189.755 111.907 195.323 106.186 190.05C92.0401 169.683 108.009 144.019 115.195 124.49L115.321 124.141Z"/>
	<path fill="#3D405B" transform="scale(0.0625 0.0625)" d="M265.166 155.936C257.505 127.479 286.953 99.5303 316.608 111.108C319.07 112.07 321.84 114.644 324.413 114.911C347.374 131.591 339.221 177.621 307.605 182.343C294.841 184.249 294.037 182.659 287.041 174.322C279.471 165.3 273.797 162.322 265.166 155.936Z"/>
	<path fill="#E07A5F" transform="scale(0.0625 0.0625)" d="M390.876 223.6C396.323 223.011 400.389 225.287 402.556 230.352C399.687 232.005 396.406 232.832 393.504 234.465C398.283 235.451 403.413 236.293 407.797 238.505C423.274 246.315 418.479 268.739 411.996 281.085C403.152 297.928 391.802 300.561 375.375 291.602C363.973 285.303 361.583 281.162 355.107 271.249C349.665 268.305 342.678 266.054 336.553 262.833C344.754 253.924 348.909 246.115 349.288 233.777C354.073 234.384 359.151 236.255 363.976 235.821C368.131 235.447 377.302 224.866 390.876 223.6Z"/>
</svg>
